<mxfile host="app.diagrams.net" agent="Mozilla/5.0 (Windows NT 10.0; Win64; x64) AppleWebKit/537.36 (KHTML, like Gecko) Chrome/131.0.0.0 Safari/537.36" version="26.0.5">
  <diagram name="Page-1" id="Ag0fdd10ECHy9MFcNCU7">
    <mxGraphModel dx="2390" dy="1300" grid="1" gridSize="10" guides="1" tooltips="1" connect="1" arrows="1" fold="1" page="1" pageScale="1" pageWidth="850" pageHeight="1100" math="0" shadow="0">
      <root>
        <mxCell id="0" />
        <mxCell id="1" parent="0" />
        <mxCell id="W3hUdhirykkBsk3XlXpX-3" style="edgeStyle=orthogonalEdgeStyle;rounded=0;orthogonalLoop=1;jettySize=auto;html=1;entryX=0.5;entryY=0;entryDx=0;entryDy=0;exitX=0.5;exitY=1;exitDx=0;exitDy=0;" edge="1" parent="1" source="W3hUdhirykkBsk3XlXpX-1" target="W3hUdhirykkBsk3XlXpX-2">
          <mxGeometry relative="1" as="geometry" />
        </mxCell>
        <mxCell id="W3hUdhirykkBsk3XlXpX-5" style="edgeStyle=orthogonalEdgeStyle;rounded=0;orthogonalLoop=1;jettySize=auto;html=1;entryX=0.5;entryY=0;entryDx=0;entryDy=0;exitX=0.5;exitY=1;exitDx=0;exitDy=0;" edge="1" parent="1" source="W3hUdhirykkBsk3XlXpX-1" target="W3hUdhirykkBsk3XlXpX-4">
          <mxGeometry relative="1" as="geometry">
            <Array as="points">
              <mxPoint x="255" y="380" />
              <mxPoint x="395" y="380" />
            </Array>
          </mxGeometry>
        </mxCell>
        <mxCell id="W3hUdhirykkBsk3XlXpX-1" value="Main" style="rounded=0;whiteSpace=wrap;html=1;" vertex="1" parent="1">
          <mxGeometry x="365" y="240" width="120" height="60" as="geometry" />
        </mxCell>
        <mxCell id="W3hUdhirykkBsk3XlXpX-7" style="edgeStyle=orthogonalEdgeStyle;rounded=0;orthogonalLoop=1;jettySize=auto;html=1;entryX=0.5;entryY=0;entryDx=0;entryDy=0;" edge="1" parent="1" source="W3hUdhirykkBsk3XlXpX-4" target="W3hUdhirykkBsk3XlXpX-6">
          <mxGeometry relative="1" as="geometry">
            <Array as="points">
              <mxPoint x="670" y="590" />
              <mxPoint x="780" y="590" />
            </Array>
          </mxGeometry>
        </mxCell>
        <mxCell id="W3hUdhirykkBsk3XlXpX-9" style="edgeStyle=orthogonalEdgeStyle;rounded=0;orthogonalLoop=1;jettySize=auto;html=1;entryX=0.5;entryY=0;entryDx=0;entryDy=0;exitX=0.5;exitY=1;exitDx=0;exitDy=0;" edge="1" parent="1" source="W3hUdhirykkBsk3XlXpX-4" target="W3hUdhirykkBsk3XlXpX-8">
          <mxGeometry relative="1" as="geometry">
            <Array as="points">
              <mxPoint x="670" y="590" />
              <mxPoint x="490" y="590" />
            </Array>
          </mxGeometry>
        </mxCell>
        <mxCell id="W3hUdhirykkBsk3XlXpX-4" value="Loop" style="rounded=0;whiteSpace=wrap;html=1;" vertex="1" parent="1">
          <mxGeometry x="610" y="460" width="120" height="60" as="geometry" />
        </mxCell>
        <mxCell id="W3hUdhirykkBsk3XlXpX-13" style="edgeStyle=orthogonalEdgeStyle;rounded=0;orthogonalLoop=1;jettySize=auto;html=1;shape=flexArrow;exitX=0.5;exitY=1;exitDx=0;exitDy=0;" edge="1" parent="1" source="W3hUdhirykkBsk3XlXpX-6" target="W3hUdhirykkBsk3XlXpX-11">
          <mxGeometry relative="1" as="geometry">
            <mxPoint x="770" y="740" as="sourcePoint" />
            <Array as="points">
              <mxPoint x="780" y="790" />
              <mxPoint x="585" y="790" />
            </Array>
          </mxGeometry>
        </mxCell>
        <mxCell id="W3hUdhirykkBsk3XlXpX-14" style="edgeStyle=orthogonalEdgeStyle;rounded=0;orthogonalLoop=1;jettySize=auto;html=1;entryX=0.5;entryY=0;entryDx=0;entryDy=0;shape=flexArrow;exitX=0.5;exitY=1;exitDx=0;exitDy=0;" edge="1" parent="1" source="W3hUdhirykkBsk3XlXpX-6" target="W3hUdhirykkBsk3XlXpX-12">
          <mxGeometry relative="1" as="geometry">
            <Array as="points" />
          </mxGeometry>
        </mxCell>
        <mxCell id="W3hUdhirykkBsk3XlXpX-6" value="Communicate" style="rounded=0;whiteSpace=wrap;html=1;" vertex="1" parent="1">
          <mxGeometry x="720" y="670" width="120" height="60" as="geometry" />
        </mxCell>
        <mxCell id="W3hUdhirykkBsk3XlXpX-20" style="edgeStyle=orthogonalEdgeStyle;rounded=0;orthogonalLoop=1;jettySize=auto;html=1;shape=flexArrow;" edge="1" parent="1" source="W3hUdhirykkBsk3XlXpX-8" target="W3hUdhirykkBsk3XlXpX-19">
          <mxGeometry relative="1" as="geometry" />
        </mxCell>
        <mxCell id="W3hUdhirykkBsk3XlXpX-8" value="Calculate" style="rounded=0;whiteSpace=wrap;html=1;" vertex="1" parent="1">
          <mxGeometry x="430" y="670" width="120" height="60" as="geometry" />
        </mxCell>
        <mxCell id="W3hUdhirykkBsk3XlXpX-11" value="Listen" style="rounded=1;whiteSpace=wrap;html=1;" vertex="1" parent="1">
          <mxGeometry x="520" y="850" width="120" height="60" as="geometry" />
        </mxCell>
        <mxCell id="W3hUdhirykkBsk3XlXpX-12" value="Talk" style="rounded=1;whiteSpace=wrap;html=1;" vertex="1" parent="1">
          <mxGeometry x="720" y="850" width="120" height="60" as="geometry" />
        </mxCell>
        <mxCell id="W3hUdhirykkBsk3XlXpX-19" value="Actions" style="rounded=1;whiteSpace=wrap;html=1;" vertex="1" parent="1">
          <mxGeometry x="275" y="850" width="120" height="60" as="geometry" />
        </mxCell>
        <mxCell id="W3hUdhirykkBsk3XlXpX-23" style="edgeStyle=orthogonalEdgeStyle;rounded=0;orthogonalLoop=1;jettySize=auto;html=1;entryX=0.5;entryY=0;entryDx=0;entryDy=0;shape=flexArrow;" edge="1" parent="1" source="W3hUdhirykkBsk3XlXpX-2" target="W3hUdhirykkBsk3XlXpX-22">
          <mxGeometry relative="1" as="geometry" />
        </mxCell>
        <mxCell id="W3hUdhirykkBsk3XlXpX-2" value="Init" style="rounded=0;whiteSpace=wrap;html=1;" vertex="1" parent="1">
          <mxGeometry x="95" y="460" width="120" height="60" as="geometry" />
        </mxCell>
        <mxCell id="W3hUdhirykkBsk3XlXpX-22" value="Initialize" style="rounded=1;whiteSpace=wrap;html=1;" vertex="1" parent="1">
          <mxGeometry x="95" y="630" width="120" height="60" as="geometry" />
        </mxCell>
      </root>
    </mxGraphModel>
  </diagram>
</mxfile>
